<?xml version="1.0" encoding="utf-8"?>
<!-- Generator: Adobe Illustrator 17.0.0, SVG Export Plug-In . SVG Version: 6.00 Build 0)  -->
<!DOCTYPE svg PUBLIC "-//W3C//DTD SVG 1.1//EN" "http://www.w3.org/Graphics/SVG/1.1/DTD/svg11.dtd">
<svg version="1.1" id="Layer_1" xmlns="http://www.w3.org/2000/svg" xmlns:xlink="http://www.w3.org/1999/xlink" x="0px" y="0px"
	 width="150.219px" height="148.962px" viewBox="0 0 150.219 148.962" enable-background="new 0 0 150.219 148.962"
	 xml:space="preserve">
<g>
	<path fill="#FFFFFF" d="M150.177,57.307c0-6.08,0.001-12.159,0-18.239c-0.001-11.319-0.077-22.639,0.042-33.956
		c0.033-3.145-3.815-6.704-7.352-4.347c-0.758,0.505-1.623,0.854-2.452,1.248c-4.506,2.144-9.032,4.246-13.519,6.426
		c-5.094,2.475-10.145,5.039-15.234,7.526c-5.847,2.857-11.72,5.661-17.572,8.507c-6.035,2.936-12.05,5.914-18.104,8.812
		c-0.51,0.244-1.338,0.228-1.858-0.012c-3.95-1.827-7.867-3.726-11.78-5.629c-5.778-2.81-11.541-5.651-17.318-8.465
		c-5.059-2.465-10.136-4.895-15.19-7.37C22.271,8.102,14.686,4.424,7.164,0.623C3.67-1.143-0.019,1.343,0,5.098
		c0.089,17.798,0.053,35.597,0.054,53.395c0.001,16.959,0.006,33.917-0.036,50.876c-0.004,1.793,0.546,3.213,1.964,4.264
		c0.671,0.497,1.405,0.927,2.155,1.298c3.325,1.646,6.662,3.27,10.002,4.885c8.627,4.17,17.268,8.31,25.884,12.503
		c5.057,2.461,10.062,5.026,15.115,7.495c5.021,2.453,10.084,4.823,15.109,7.269c5.187,2.525,4.591,2.473,9.66,0.047
		c5.115-2.448,10.217-4.926,15.307-7.427c5.052-2.483,10.068-5.038,15.124-7.511c4.698-2.298,9.434-4.519,14.141-6.798
		c4.492-2.174,8.971-4.377,13.452-6.573c3.151-1.544,6.311-3.072,9.44-4.659c1.978-1.003,2.819-2.686,2.816-4.898
		C150.17,91.944,150.178,74.625,150.177,57.307z"/>
	<path d="M150.177,57.307c0.001,17.319-0.008,34.637,0.011,51.956c0.002,2.213-0.838,3.896-2.816,4.898
		c-3.13,1.587-6.289,3.115-9.44,4.659c-4.481,2.196-8.96,4.399-13.452,6.573c-4.708,2.279-9.443,4.499-14.141,6.798
		c-5.056,2.474-10.072,5.029-15.124,7.511c-5.09,2.501-10.191,4.979-15.307,7.427c-5.069,2.426-4.473,2.478-9.66-0.047
		c-5.025-2.446-10.087-4.815-15.109-7.269c-5.053-2.469-10.058-5.034-15.115-7.495c-8.616-4.193-17.257-8.333-25.884-12.503
		c-3.341-1.615-6.677-3.238-10.002-4.885c-0.75-0.371-1.484-0.8-2.155-1.298c-1.418-1.051-1.969-2.471-1.964-4.264
		C0.06,92.411,0.055,75.452,0.054,58.493C0.054,40.695,0.089,22.896,0,5.098c-0.019-3.755,3.669-6.24,7.164-4.474
		c7.522,3.801,15.107,7.478,22.676,11.185c5.054,2.475,10.131,4.905,15.19,7.37c5.776,2.814,11.54,5.654,17.318,8.465
		c3.914,1.904,7.831,3.802,11.78,5.629c0.52,0.241,1.347,0.257,1.858,0.012c6.053-2.898,12.068-5.876,18.104-8.812
		c5.852-2.847,11.725-5.65,17.572-8.507c5.089-2.487,10.139-5.051,15.234-7.526c4.488-2.18,9.014-4.282,13.519-6.426
		c0.829-0.394,1.694-0.743,2.452-1.248c3.537-2.357,7.385,1.203,7.352,4.347c-0.12,11.318-0.044,22.637-0.042,33.956
		C150.177,45.148,150.177,51.227,150.177,57.307z M140.848,59.69c0-14.117,0-28.235,0-42.352c0-1.32,0.006-2.639-0.006-3.959
		c-0.007-0.802-0.216-1.244-1.158-0.774c-3.463,1.73-6.947,3.417-10.421,5.125c-4.225,2.078-8.442,4.175-12.674,6.238
		c-5.993,2.922-12,5.817-17.996,8.734c-2.331,1.134-4.644,2.307-6.973,3.445c-3.117,1.524-6.224,3.072-9.37,4.534
		c-1.977,0.919-3.974,1.843-6.049,2.481c-0.958,0.295-1.359,0.564-1.339,1.541c0.059,2.878,0.097,5.756,0.101,8.634
		c0.01,8.999,0,17.997-0.001,26.996c-0.001,15.717-0.006,31.435,0.004,47.152c0.002,3.478,0.056,6.956,0.091,10.434
		c0.009,0.891,0.39,1.167,1.062,0.828c3.235-1.631,6.466-3.27,9.717-4.867c2.865-1.407,5.764-2.744,8.631-4.147
		c4.403-2.154,8.783-4.354,13.187-6.506c5.164-2.524,10.352-5,15.514-7.529c5.271-2.582,10.516-5.216,15.785-7.801
		c1.766-0.866,1.985-1.156,1.917-3.094c-0.014-0.4-0.018-0.8-0.018-1.2C140.851,88.965,140.851,74.327,140.848,59.69z"/>
	<path fill="#FFFFFF" d="M140.849,59.69c0.002,14.638,0.002,29.276,0.003,43.914c0,0.4,0.004,0.8,0.018,1.2
		c0.067,1.938-0.152,2.228-1.917,3.094c-5.269,2.585-10.515,5.219-15.785,7.801c-5.162,2.529-10.349,5.005-15.514,7.529
		c-4.404,2.152-8.784,4.352-13.187,6.506c-2.867,1.403-5.766,2.74-8.631,4.147c-3.251,1.597-6.483,3.236-9.717,4.867
		c-0.672,0.339-1.053,0.062-1.062-0.828c-0.035-3.478-0.089-6.956-0.091-10.434c-0.01-15.717-0.005-31.435-0.004-47.152
		c0.001-8.999,0.011-17.997,0.001-26.996c-0.003-2.878-0.042-5.756-0.101-8.634c-0.02-0.977,0.381-1.247,1.339-1.541
		c2.075-0.638,4.072-1.562,6.049-2.481c3.146-1.463,6.253-3.01,9.37-4.534c2.329-1.139,4.642-2.311,6.973-3.445
		c5.996-2.917,12.003-5.811,17.996-8.734c4.232-2.064,8.448-4.16,12.674-6.238c3.474-1.708,6.958-3.395,10.421-5.125
		c0.942-0.471,1.15-0.028,1.158,0.774c0.012,1.32,0.006,2.639,0.006,3.959C140.848,31.455,140.848,45.572,140.849,59.69z
		 M92.457,63.188c0.652-0.157,1.352-0.211,1.947-0.489c3.498-1.639,6.98-3.315,10.452-5.008c6.892-3.36,13.783-6.723,20.653-10.128
		c0.916-0.454,1.782-1.081,2.538-1.773c1.464-1.341,1.666-4.119,0.524-5.743c-1.297-1.845-3.71-2.601-5.622-1.696
		c-3.536,1.674-7.062,3.368-10.577,5.087c-5.056,2.472-10.098,4.972-15.146,7.462c-2.293,1.131-4.625,2.192-6.865,3.42
		c-2.116,1.16-2.841,3.234-2.199,5.665C88.598,61.628,90.562,63.052,92.457,63.188z M129.285,67.235
		c0.172-3.324-3.74-5.419-6.943-3.794c-5.233,2.657-10.54,5.168-15.813,7.745c-5.202,2.542-10.416,5.061-15.595,7.649
		c-1.715,0.857-2.93,2.134-3.026,4.257c-0.142,3.105,3.247,5.803,5.969,4.641c1.5-0.64,2.975-1.341,4.445-2.049
		c3.233-1.558,6.46-3.127,9.68-4.71c6.161-3.029,12.325-6.053,18.467-9.122C128.186,70.993,129.256,69.609,129.285,67.235z
		 M129.262,92.555c-0.003-3.594-3.292-5.754-6.498-4.43c-1.581,0.653-3.124,1.404-4.661,2.159c-5.19,2.549-10.37,5.119-15.553,7.683
		c-4.04,1.999-8.106,3.95-12.108,6.022c-2.586,1.339-3.015,3.695-2.114,6.024c0.78,2.017,3.956,3.464,5.943,2.349
		c1.909-1.071,3.959-1.888,5.931-2.85c5.914-2.886,11.818-5.793,17.731-8.683c2.722-1.331,5.482-2.587,8.172-3.98
		C127.896,95.921,129.433,94.699,129.262,92.555z"/>
	<path d="M92.457,63.188c-1.895-0.136-3.86-1.56-4.294-3.204c-0.642-2.431,0.083-4.505,2.199-5.665
		c2.24-1.228,4.572-2.289,6.865-3.42c5.047-2.49,10.09-4.99,15.146-7.462c3.515-1.718,7.041-3.413,10.577-5.087
		c1.912-0.905,4.325-0.15,5.622,1.696c1.142,1.624,0.94,4.403-0.524,5.743c-0.756,0.692-1.622,1.319-2.538,1.773
		c-6.87,3.406-13.761,6.768-20.653,10.128c-3.473,1.693-6.954,3.369-10.452,5.008C93.809,62.978,93.109,63.031,92.457,63.188z"/>
	<path d="M129.285,67.235c-0.029,2.374-1.099,3.758-2.817,4.617c-6.141,3.069-12.306,6.093-18.467,9.122
		c-3.22,1.583-6.447,3.152-9.68,4.71c-1.47,0.708-2.945,1.408-4.445,2.049c-2.722,1.162-6.111-1.536-5.969-4.641
		c0.097-2.123,1.312-3.399,3.026-4.257c5.179-2.589,10.392-5.108,15.595-7.649c5.274-2.577,10.58-5.088,15.813-7.745
		C125.545,61.815,129.457,63.91,129.285,67.235z"/>
	<path d="M129.262,92.555c0.171,2.144-1.366,3.366-3.158,4.294c-2.69,1.393-5.45,2.649-8.172,3.98
		c-5.912,2.89-11.816,5.797-17.731,8.683c-1.972,0.962-4.022,1.78-5.931,2.85c-1.987,1.114-5.163-0.332-5.943-2.349
		c-0.901-2.329-0.471-4.685,2.114-6.024c4.003-2.072,8.068-4.023,12.108-6.022c5.183-2.564,10.363-5.134,15.553-7.683
		c1.537-0.755,3.08-1.506,4.661-2.159C125.97,86.801,129.259,88.96,129.262,92.555z"/>
</g>
</svg>
