<?xml version="1.0" encoding="utf-8"?>
<!-- Generator: Adobe Illustrator 17.0.0, SVG Export Plug-In . SVG Version: 6.00 Build 0)  -->
<!DOCTYPE svg PUBLIC "-//W3C//DTD SVG 1.1//EN" "http://www.w3.org/Graphics/SVG/1.1/DTD/svg11.dtd">
<svg version="1.1" id="Layer_1" xmlns="http://www.w3.org/2000/svg" xmlns:xlink="http://www.w3.org/1999/xlink" x="0px" y="0px"
	 width="150.217px" height="148.804px" viewBox="0 0 150.217 148.804" enable-background="new 0 0 150.217 148.804"
	 xml:space="preserve">
<g>
	<path fill="#FFFFFF" d="M150.162,57.404c0-1.12,0-2.24,0-3.359c0-16.277-0.066-32.554,0.055-48.829
		c0.024-3.226-3.83-6.827-7.374-4.442c-0.755,0.508-1.623,0.852-2.452,1.246c-4.504,2.144-9.028,4.247-13.515,6.427
		c-5.092,2.474-10.142,5.036-15.229,7.521c-5.845,2.856-11.716,5.661-17.566,8.507c-6.07,2.953-12.122,5.942-18.206,8.864
		c-0.45,0.216-1.181,0.206-1.638-0.007c-3.981-1.853-7.936-3.761-11.885-5.682c-5.777-2.809-11.538-5.648-17.313-8.461
		c-5.058-2.464-10.133-4.892-15.185-7.366C22.252,8.101,14.639,4.396,7.076,0.592C3.703-1.104-0.12,1.287,0.006,5.064
		C0.13,8.779,0.052,12.501,0.051,16.22C0.048,47.134,0.062,78.048,0,108.961c-0.005,2.566,0.941,4.3,3.146,5.423
		c2.31,1.177,4.632,2.33,6.964,3.464c5.886,2.862,11.788,5.69,17.668,8.563c5.951,2.907,11.872,5.878,17.83,8.772
		c4.196,2.039,8.447,3.965,12.645,6c4.526,2.194,9.067,4.365,13.507,6.722c2.472,1.313,4.696,1.135,7.017-0.19
		c1.143-0.652,2.346-1.201,3.531-1.776c4.311-2.09,8.637-4.149,12.936-6.262c5.05-2.482,10.065-5.034,15.12-7.505
		c4.625-2.262,9.289-4.444,13.924-6.686c3.27-1.582,6.52-3.206,9.781-4.807c4.439-2.178,8.892-4.327,13.315-6.538
		c1.936-0.968,2.791-2.622,2.79-4.788c-0.012-17.316-0.007-34.633-0.007-51.949C150.166,57.404,150.164,57.404,150.162,57.404z
		 M139.379,107.68c-2.864,1.412-5.741,2.795-8.606,4.205c-5.731,2.819-11.457,5.647-17.184,8.474
		c-3.65,1.801-7.292,3.617-10.948,5.406c-3.398,1.663-6.806,3.305-10.215,4.945c-4.998,2.404-10.001,4.798-14.999,7.201
		c-0.355,0.171-0.677,0.415-1.036,0.575c-0.332,0.148-0.693,0.228-1.042,0.338c-0.101-0.325-0.289-0.649-0.29-0.974
		c-0.014-15.555-0.013-31.111-0.013-46.667c-0.029,0-0.059,0-0.088,0c0-12.638,0.006-25.275-0.005-37.913
		c-0.002-2.838-0.042-5.676-0.109-8.513c-0.025-1.031,0.38-1.301,1.397-1.604c2.079-0.618,4.065-1.578,6.042-2.499
		c3.144-1.464,6.253-3.005,9.371-4.527c2.257-1.102,4.498-2.238,6.756-3.337c6.066-2.952,12.143-5.883,18.207-8.841
		c4.231-2.064,8.445-4.162,12.669-6.24c3.472-1.709,6.947-3.413,10.422-5.116c0.868-0.425,1.123-0.231,1.127,0.911
		c0.014,3.479,0.014,6.958,0.014,10.438c-0.002,26.355-0.005,52.709-0.007,79.064c0,0.68-0.091,1.383,0.05,2.034
		C141.197,106.428,140.459,107.148,139.379,107.68z"/>
	<path fill="#FFFFFF" d="M92.562,63.311c0.975-0.399,1.971-0.754,2.921-1.206c4.534-2.156,9.063-4.326,13.581-6.515
		c5.354-2.594,10.709-5.187,16.033-7.842c1.092-0.545,2.144-1.257,3.046-2.077c1.404-1.277,1.525-4.088,0.398-5.656
		c-1.288-1.792-3.68-2.566-5.524-1.697c-3.61,1.703-7.202,3.444-10.789,5.193c-4.411,2.151-8.811,4.324-13.215,6.492
		c-2.831,1.394-5.688,2.74-8.481,4.207c-2.22,1.165-3.007,3.201-2.389,5.689C88.569,61.619,90.521,63.053,92.562,63.311z"/>
	<path fill="#FFFFFF" d="M93.881,87.725c1.46-0.631,2.906-1.299,4.338-1.99c3.339-1.612,6.667-3.244,9.997-4.875
		c4.766-2.334,9.533-4.665,14.291-7.016c1.575-0.778,3.187-1.51,4.662-2.451c1.926-1.229,2.566-3.407,1.872-5.604
		c-0.493-1.56-2.456-2.88-4.349-3.054c-0.786,0.246-1.616,0.398-2.35,0.752c-5.251,2.529-10.484,5.097-15.72,7.656
		c-5.237,2.559-10.487,5.092-15.701,7.697c-1.716,0.857-2.927,2.139-3.017,4.262C87.772,86.214,91.165,88.898,93.881,87.725z"/>
	<path fill="#FFFFFF" d="M122.756,88.15c-1.746,0.656-3.404,1.551-5.082,2.38c-2.822,1.395-5.62,2.84-8.444,4.23
		c-6.264,3.082-12.552,6.114-18.797,9.232c-1.592,0.795-2.596,2.118-2.477,3.784c-0.073,3.518,3.19,5.838,6.18,4.579
		c2.057-0.867,4.056-1.871,6.064-2.85c5.913-2.884,11.816-5.79,17.727-8.68c2.721-1.33,5.509-2.54,8.152-4.011
		c1.13-0.629,2.347-1.616,2.846-2.742c0.739-1.667,0.552-3.486-0.957-4.961C126.405,87.586,124.613,87.452,122.756,88.15z"/>
</g>
</svg>
